<svg width="48" height="48" viewBox="0 0 48 48" fill="none" xmlns="http://www.w3.org/2000/svg">
<path d="M46 23.9543L41.12 18.3849L41.8 11.019L34.58 9.38208L30.8 2.99426L24 5.9087L17.2 2.99426L13.42 9.36211L6.2 10.979L6.88 18.3649L2 23.9543L6.88 29.5237L6.2 36.9096L13.42 38.5464L17.2 44.9143L24 41.9799L30.8 44.8943L34.58 38.5265L41.8 36.8896L41.12 29.5237L46 23.9543ZM18.76 31.959L14 27.1681C13.8146 26.9835 13.6675 26.7641 13.5671 26.5226C13.4668 26.2811 13.4151 26.0223 13.4151 25.7608C13.4151 25.4994 13.4668 25.2405 13.5671 24.999C13.6675 24.7575 13.8146 24.5382 14 24.3535L14.14 24.2138C14.92 23.4353 16.2 23.4353 16.98 24.2138L20.2 27.4476L30.5 17.1473C31.28 16.3687 32.56 16.3687 33.34 17.1473L33.48 17.287C34.26 18.0655 34.26 19.3231 33.48 20.1016L21.64 31.959C20.82 32.7375 19.56 32.7375 18.76 31.959V31.959Z" fill="#1D9BF0"/>
<path d="M18.7599 31.959L13.9999 27.1681C13.8145 26.9835 13.6674 26.7641 13.5671 26.5226C13.4667 26.2811 13.415 26.0222 13.415 25.7608C13.415 25.4994 13.4667 25.2405 13.5671 24.999C13.6674 24.7575 13.8145 24.5382 13.9999 24.3535L14.1399 24.2138C14.9199 23.4352 16.1999 23.4352 16.9799 24.2138L20.1999 27.4476L30.4999 17.1472C31.2799 16.3687 32.5599 16.3687 33.3399 17.1472L33.4799 17.287C34.2599 18.0655 34.2599 19.3231 33.4799 20.1016L21.6399 31.959C20.8199 32.7375 19.5599 32.7375 18.7599 31.959Z" fill="#F5F8FA"/>
</svg>
